<svg xmlns="http://www.w3.org/2000/svg" viewBox="0 0 141.73 141.73">
  <path fill="#4599D8" d="M98.47,88.1c-2,0.53-1.73-1.22-0.87-2.72c1.68-2.95,2.71-6.27,2.9-9.79c0.19-3.51-0.48-6.83-1.83-9.78c-0.8-1.75-0.32-2.8,1.31-2.71c5.1,0.29,9.87,1.07,13.42,2.89c3.76,1.93,4.17,5.71,1,10.39C110.95,81.46,103.26,86.83,98.47,88.1L98.47,88.1z"/>
  <path fill="#D7569C" d="M20.21,26.19c1.52-8.68,8.65-16.76,20.96-11.57c16.42,6.92,43.01,32.64,53.6,45.6c2.05,2.5,0.8,3.19-0.37,3.29c-15.81,1.37-33.23,6.63-46.94,14.31c-2.59,1.45-1.95,1.5-5.01,0.42C27.36,72.9,21.11,62.93,19.57,49.1C18.82,42.35,18.8,34.21,20.21,26.19L20.21,26.19z"/>
  <path fill="#E18C44" d="M43.03,82.94c-7.79,6.19-9.73,13.7-9.5,23.34c0.09,3.7,1.28,15.04,1.98,19.05c2.11,12.1,10.79,13.97,23.07,5.35c12.39-8.7,25.88-26.06,34.54-37.42c2.18-2.86,1.81-4.26-1-3.91c-14.94,1.86-31.09-0.06-44.72-6.52C45.34,81.86,44.95,81.42,43.03,82.94L43.03,82.94z"/>
</svg>
